
        <svg xmlns="http://www.w3.org/2000/svg" xmlns:xlink="http://www.w3.org/1999/xlink" version="1.1" width="3192" height="3192" viewBox="0 0 3192 3192">
			
			<g transform="scale(9.6) translate(10, 10)">
				<defs id="SvgjsDefs6916"/><g id="SvgjsG6917" featureKey="rootContainer" transform="matrix(6.25,0,0,6.25,0,0)" fill="#000"><path xmlns="http://www.w3.org/2000/svg" d="M50 25c0 8.88-3.62 15.67-10.6 20.11C35.53 47.58 29.93 50 25 50c-8.63 0-14.24-1.37-18.73-8C3.57 38 0 30.2 0 25c0-6.85 1.76-14.06 6.22-18.58S18.04 0 25 0c9.5 0 16.77 5.3 21 13.11 1.88 3.53 4 7.58 4 11.89z"/></g><g id="SvgjsG6918" featureKey="symbolFeature-0" transform="matrix(1.559222661088499,0,0,1.559222661088499,76.58957956686358,61.526785998207984)" fill="#ffffff"><g xmlns="http://www.w3.org/2000/svg"><g><path d="M26.525,87.914c-0.946,0-1.854-0.534-2.287-1.447c-0.598-1.262-0.059-2.77,1.203-3.369l48.947-23.199    c1.26-0.599,2.77-0.061,3.369,1.202c0.598,1.262,0.059,2.77-1.203,3.369L27.606,87.669C27.257,87.835,26.888,87.914,26.525,87.914    z"/></g><g><path d="M41.917,72.136c-0.369,0-0.743-0.081-1.097-0.251l-15.395-7.421c-1.258-0.607-1.787-2.119-1.181-3.377    c0.606-1.26,2.123-1.786,3.377-1.18l15.395,7.421c1.258,0.607,1.787,2.119,1.181,3.377C43.761,71.608,42.857,72.136,41.917,72.136    z"/></g><g><path d="M75.469,87.868c-0.369,0-0.745-0.082-1.099-0.253l-15.214-7.353c-1.258-0.608-1.785-2.121-1.177-3.378    c0.606-1.259,2.121-1.784,3.378-1.177L76.57,83.06c1.258,0.608,1.785,2.121,1.177,3.378    C77.311,87.341,76.409,87.868,75.469,87.868z"/></g><g><path d="M51.23,64.91c-11.273,0-20.445-9.172-20.445-20.445c0-4.367,2.506-7.301,4.715-9.889c2.68-3.137,4.14-5.078,3.002-8.491    c-0.32-0.958-0.037-2.016,0.716-2.688c0.756-0.673,1.838-0.831,2.753-0.404c0.146,0.068,14.494,7,9.812,25.262    c-0.347,1.353-1.719,2.167-3.079,1.822c-1.352-0.347-2.169-1.725-1.822-3.078c2.151-8.391-0.526-13.564-3.179-16.441    c-0.69,3.009-2.655,5.31-4.357,7.303c-1.88,2.202-3.504,4.103-3.504,6.604c0,8.484,6.903,15.387,15.386,15.387    c8.485,0,15.387-6.903,15.387-15.387c0-5.069-2.779-8.851-5.997-13.23c-3.139-4.269-6.607-8.989-7.437-15.408    c-1.209,1.396-2.281,3.226-2.417,5.405c-0.086,1.394-1.27,2.456-2.682,2.367c-1.394-0.087-2.454-1.288-2.366-2.682    c0.503-8.05,8.398-12.427,8.733-12.61c0.826-0.45,1.834-0.403,2.616,0.122c0.782,0.524,1.208,1.438,1.107,2.372    c-0.808,7.464,2.754,12.309,6.523,17.438c3.432,4.669,6.98,9.497,6.98,16.225C71.676,55.738,62.503,64.91,51.23,64.91z"/></g></g></g><g id="SvgjsG6919" featureKey="nameFeature-0" transform="matrix(0.6961366202108209,0,0,0.6961366202108209,54.66341788504207,210.7298955444537)" fill="#ffffff"><path d="M24.4 35.72 c-2.44 3.04 -5.76 4.52 -9.64 4.52 c-1.12 0 -2.2 -0.16 -3.28 -0.44 c-1.24 -0.44 -2.44 -0.92 -3.52 -1.6 c-2.44 -1.72 -4.2 -3.56 -5.04 -6.56 c-0.04 0 -0.04 -0.04 -0.04 -0.08 c0 0 0 -0.04 -0.04 -0.08 l0 -0.08 c-0.04 0 -0.04 -0.04 -0.04 -0.08 c-0.08 -0.24 -0.16 -0.44 -0.2 -0.68 c0 0 -0.08 -0.2 -0.08 -0.24 l0 -0.04 l0 0 l0 -0.04 c-0.04 0 -0.04 -0.04 -0.04 -0.08 c-0.08 -0.28 -0.12 -0.56 -0.2 -0.8 c-0.24 -1.08 -0.36 -2.16 -0.36 -3.24 c0 -0.52 0.04 -1 0.04 -1.48 c0 -0.36 0.04 -0.68 0.12 -1.04 c0.28 -2.32 1.12 -4.52 2.52 -6.4 c0.04 -0.04 0.08 -0.12 0.12 -0.16 c1.24 -1.72 2.88 -3.12 4.72 -4.08 c0.08 -0.04 0.16 -0.08 0.2 -0.12 c1.04 -0.44 2.04 -0.76 3.16 -0.92 l-0.04 0 c0.2 0 0.4 -0.04 0.6 -0.04 c3.08 -0.32 6.32 0.48 8.84 2.28 c1.6 1.12 3.28 3.32 3.68 5.24 c-0.08 0.24 -0.56 0.04 -0.8 0.08 c-0.56 -0.12 -1.36 0.12 -1.8 -0.16 c0 -0.04 -0.04 -0.04 -0.04 -0.08 c-0.08 -0.16 -0.16 -0.32 -0.24 -0.52 l0 0.04 c-0.16 -0.28 -0.32 -0.52 -0.48 -0.76 c-1.68 -2.16 -3.88 -3.28 -6.52 -3.6 c-0.84 -0.08 -1.68 -0.08 -2.56 0.04 l0.04 0 c-2.88 0.44 -5.16 1.8 -6.84 4.16 c-1.16 1.84 -1.68 3.44 -1.96 5.64 c-0.12 1.2 0 2.4 0.16 3.6 l0 0.08 c0.2 1.24 0.48 2.48 1.04 3.64 c1.96 3.6 4.2 5.72 8.6 5.92 c3.76 0 7 -1.44 8.76 -4.96 c0.6 -0.4 1.68 -0.08 2.4 -0.16 c0.44 0.12 -0.12 1.08 -0.16 1.4 c-0.28 0.68 -0.64 1.32 -1.08 1.88 z M14.88 26.759999999999998 c-0.72 0.28 -1.24 -1.08 -1.88 -1.4 c-0.2 -0.76 1.12 -1.28 1.44 -1.96 c0.68 -0.24 1.2 1.04 1.76 1.4 c0.48 0.68 -1.04 1.32 -1.32 1.96 z M1.92 26.16 l0 0.04 l0 -0.04 z M57.22 33.12 c-0.76 0 -1.72 0.2 -2.36 0 c-0.04 -0.08 -0.04 -0.12 -0.08 -0.16 c-0.04 -0.16 -0.08 -0.28 -0.12 -0.44 c-0.72 -1.88 -1.28 -3.84 -2.12 -5.68 c-2.72 -0.04 -5.48 -0.04 -8.2 0 c-0.84 1.84 -1.4 3.8 -2.12 5.68 c-0.04 0.16 -0.08 0.28 -0.12 0.44 c-0.04 0.04 -0.04 0.08 -0.08 0.16 c-0.64 0.2 -1.6 0 -2.36 0 c-0.96 0.12 0.88 -3.08 0.92 -3.76 c2.16 -5.76 4.36 -11.6 6.52 -17.32 c0.84 -0.04 1.84 -0.04 2.68 0 c2.56 6.96 5.32 13.96 7.8 20.96 c0 0.16 -0.24 0.08 -0.36 0.12 z M48.42 16.12 c-1.16 2.84 -2.32 5.72 -3.4 8.6 c2.28 -0.04 4.52 -0.08 6.8 -0.08 c-1.08 -2.84 -2.2 -5.68 -3.4 -8.52 z M48.7 39.8 c-0.76 0.24 -1.28 -1.12 -1.88 -1.44 c-0.24 -0.76 1.04 -1.28 1.36 -1.92 c0.68 -0.48 1.32 1.08 1.92 1.36 c0.24 0.76 -1.08 1.32 -1.4 2 z M96.36 40.12 c-0.96 0.12 -1.88 0.12 -2.8 -0.08 c-3.8 -0.84 -4.68 -4.24 -6.24 -7.24 c0 -0.04 -0.04 -0.04 -0.04 -0.08 c-0.72 -1.32 -1.6 -2.6 -2.84 -3.52 c-0.56 -0.48 -1.12 -0.88 -1.84 -1.08 c-0.72 -0.04 -1.48 0.12 -2.2 0.16 c-1.76 0.12 -3.48 0 -5.2 -0.08 c0.04 3.52 -0.04 7.08 0 10.6 c-0.08 0.28 0.12 0.88 -0.16 1 c-0.68 0 -1.32 0.04 -2 -0.08 c-0.12 -0.04 -0.52 0.04 -0.48 -0.2 c0.24 -8.8 0 -17.68 0.12 -26.52 c0.04 -0.32 -0.2 -1.04 0.36 -0.92 c2.36 -0.04 4.76 -0.04 7.12 0.04 c7.56 -0.44 11.48 7.96 6.84 13.68 l-0.36 0.36 c-0.04 0.04 -0.08 0.12 -0.16 0.16 c-0.24 0.24 -0.44 0.4 -0.68 0.6 c0.04 0.04 0.08 0.04 0.12 0.08 c1.64 1.48 2.88 3.32 3.8 5.32 c0.52 1.12 1 2.32 1.8 3.32 c1.16 1.56 3.16 2.32 5.08 2.04 c1.04 -0.04 2.24 -0.12 3.2 -0.6 c0.28 -0.16 0.32 -0.12 0.32 0.2 c0 0.12 0 0.24 0.04 0.36 c0 0.12 -0.04 0.28 -0.04 0.4 l0 0.16 l0 0.76 c0 0.08 0 0.16 -0.04 0.2 c-0.96 0.8 -2.52 0.92 -3.72 0.96 z M98.67999999999999 15.440000000000001 c-0.72 0.28 -1.24 -1.04 -1.84 -1.4 c-0.2 -0.72 1.08 -1.24 1.4 -1.92 c0.68 -0.24 1.2 1.08 1.8 1.44 c0.2 0.72 -1.04 1.24 -1.36 1.88 z M75.2 25.759999999999998 c3.4 -0.08 7.88 0.88 10.2 -2.2 c1.96 -2.76 1 -7.44 -2.28 -8.68 c-2.48 -0.84 -5.32 -0.44 -7.92 -0.44 c-0.04 3.8 0 7.56 0 11.32 z M99.72 32.480000000000004 c-0.84 0.04 -2 0.16 -2.72 -0.04 c0 -1.12 0.04 -2.24 0.08 -3.36 c0.04 -0.92 0 -1.84 0.04 -2.76 l0 -7.64 c0.08 -0.2 -0.08 -0.56 0.12 -0.64 c0.76 0.04 1.68 -0.12 2.36 0.08 c0.16 1.64 0.12 3.36 0.04 5.04 c0 2.36 0 4.72 0.12 7.04 c0 0.76 0.08 1.56 -0.04 2.28 z M134.18 34.480000000000004 c-1.36 4.84 -5.88 5.56 -10.44 5.56 c-2.24 0 -4.52 -0.16 -6.44 -0.12 l-0.16 0 c-0.44 -7 0.24 -14.52 0.04 -21.68 c-0.08 -2.04 0 -4.08 -0.04 -6.12 l0.04 -0.08 c2.24 0.12 4.68 -0.16 7.08 -0.16 c2.64 0 5.16 0.36 7.28 2.04 c3.64 3.12 2.76 10.2 -2.12 11.6 c2.28 0.48 4.16 2.44 4.68 4.72 c0.2 0.6 0.28 1.2 0.32 1.84 l0 0.72 l0 0.2 c0 0.04 0 0.12 -0.04 0.16 l0 0.04 c0 0.16 0 0.36 -0.04 0.52 l0 0.04 c-0.04 0.24 -0.12 0.48 -0.16 0.72 z M119.74000000000001 24.16 c2.44 -0.04 4.88 0.08 7.28 -0.12 c0.92 -0.12 1.8 -0.44 2.56 -1.04 c0.64 -0.44 1.28 -1.44 1.44 -2.2 c0.08 -0.28 0.16 -0.6 0.2 -0.88 c0.08 -0.4 0.08 -0.84 0 -1.28 c-0.04 -0.24 -0.08 -0.52 -0.16 -0.8 c-0.04 -0.2 -0.12 -0.36 -0.16 -0.56 l0 0.04 l0 -0.04 l-0.04 -0.04 l0 0.04 c-0.04 -0.12 -0.08 -0.2 -0.12 -0.28 l0 0.04 c-0.28 -0.52 -0.68 -0.92 -1.16 -1.28 l0.04 0 c-0.4 -0.32 -0.92 -0.6 -1.4 -0.8 c-0.4 -0.2 -0.88 -0.28 -1.32 -0.36 c-2.36 -0.2 -4.76 -0.2 -7.16 -0.16 c0 0.88 0.04 1.8 0 2.68 c-0.04 2.36 -0.04 4.68 0 7.04 z M119.58000000000001 24.119999999999997 l-0.08 0 l0.08 0 z M119.66000000000001 37.36 c2.56 -0.04 5.16 0.28 7.68 -0.04 c0.84 -0.12 1.68 -0.32 2.4 -0.84 l-0.04 0 c0.84 -0.56 1.44 -1.56 1.84 -2.48 c0.08 -0.16 0.12 -0.36 0.2 -0.56 l-0.04 0 c0.16 -0.56 0.24 -1.12 0.24 -1.72 c0 -1.4 -0.76 -2.6 -1.8 -3.48 c-1 -0.76 -2.16 -1.2 -3.4 -1.36 c-2.32 -0.24 -4.68 -0.08 -7 -0.16 c-0.08 3.56 -0.12 7.08 -0.08 10.64 z M119.82000000000001 37.56 l-0.12 0 l0.12 0 z M159.92 15.48 c-0.72 0.24 -1.24 -1.08 -1.8 -1.4 c-0.28 -0.76 1.04 -1.28 1.36 -1.96 c0.72 -0.24 1.24 1.08 1.84 1.44 c0.2 0.72 -1.08 1.28 -1.4 1.92 z M159.07999999999998 40.44 l-0.08 0 l-0.28 0 c-0.2 -0.04 -0.44 -0.04 -0.68 -0.08 c-1.04 -0.12 -2.08 -0.32 -3.04 -0.84 c-0.12 -0.04 -0.28 -0.12 -0.44 -0.2 l-0.2 -0.12 c-0.04 0 -0.08 0 -0.12 -0.08 l-0.04 0 c-0.24 -0.16 -0.44 -0.28 -0.64 -0.44 l-0.04 0 c-2.52 -1.84 -3.52 -4.96 -3.52 -7.96 l0 -1.68 l0 -0.12 l0 -0.2 l0 -0.16 l0 -0.16 l0 -0.16 c0 -0.08 -0.04 -0.2 -0.04 -0.28 c0 -2.16 0.04 -4.32 0.08 -6.48 l0 -0.04 l0 -0.08 l0 -0.16 l0 -0.56 l0 -0.16 l0 -0.2 l0 -0.32 l0 -0.24 l0 -0.16 l0 -0.12 c0 -0.08 0.04 -0.12 0.12 -0.16 l0.12 0 c0.4 -0.08 0.8 -0.08 1.24 -0.08 c0.4 0 0.84 0 1.24 0.04 c0.08 0 0.24 0.04 0.24 0.16 c0.04 0.08 0.04 0.12 0.04 0.2 l0 0.12 c0 0.68 -0.04 1.4 -0.04 2.08 l0 0.64 c-0.04 0.92 -0.04 1.84 -0.04 2.72 c-0.04 0.08 -0.04 0.12 -0.04 0.16 c0 0.12 0.04 0.2 0.04 0.32 c0 0.04 0 0.08 -0.04 0.12 l0 0.32 l0 2.52 l0 0.08 l0 0.52 l0 0.16 c0 0.72 -0.04 1.44 0.04 2.16 l0 0.04 c0.04 0.28 0.08 0.52 0.12 0.8 c0 0.08 0.04 0.16 0.04 0.28 c0.04 0.28 0.16 0.56 0.24 0.84 c0.08 0.24 0.2 0.48 0.28 0.72 c0.12 0.2 0.24 0.44 0.36 0.64 c0.36 0.64 0.96 1.24 1.56 1.64 c0.52 0.44 1.36 0.84 2.04 0.96 l0.04 0 c0.28 0.08 0.56 0.12 0.88 0.16 l0.08 0 c0.24 0 0.48 0 0.72 0.04 l0.24 0 l0.28 0 c0.24 -0.04 0.48 -0.04 0.72 -0.04 l0.08 0 c0.28 -0.04 0.6 -0.08 0.88 -0.16 c0.28 -0.04 0.52 -0.16 0.8 -0.24 c1.32 -0.52 2 -1.2 2.84 -2.36 c0.12 -0.2 0.24 -0.44 0.32 -0.64 c0.24 -0.52 0.44 -1 0.52 -1.56 l0.04 0 c0 -0.12 0 -0.2 0.04 -0.28 c0 -0.28 0.04 -0.52 0.08 -0.76 c0.08 -0.72 0.08 -1.44 0.08 -2.16 l0 -0.2 l0 -0.56 l0 -0.08 c-0.04 -0.84 -0.04 -1.72 -0.04 -2.56 l0 -0.28 l0 -0.12 l0 -0.32 l0 -0.12 l0 -0.92 l0 -0.16 c0 -0.52 -0.04 -1.08 -0.04 -1.64 c-0.04 -0.96 -0.04 -1.84 -0.04 -2.76 l0 -0.12 l0 -0.16 c0.04 -0.04 0.04 -0.12 0.12 -0.16 c0.04 -0.04 0.08 -0.04 0.16 -0.04 c0.4 -0.04 0.84 -0.04 1.24 -0.04 s0.84 0 1.24 0.08 c0.12 0.04 0.16 0.08 0.2 0.12 l0 0.16 l0 0.04 l0 0.2 l0 0.64 l0 0.04 c0.04 0.32 0.04 0.68 0.04 1 c0.04 1.8 0.08 3.64 0.08 5.44 c0 0.36 -0.04 0.72 -0.04 1.08 l0 0.4 l0 0.16 c0 0.28 -0.04 0.56 -0.04 0.84 l0 0.24 l0 0.56 l0 0.04 c0 3.28 -0.72 6.4 -3.52 8.44 c-0.2 0.16 -0.36 0.28 -0.56 0.36 c0 0.04 -0.04 0.04 -0.08 0.08 c0 0 -0.04 0.04 -0.12 0.04 c-0.04 0.04 -0.08 0.04 -0.08 0.08 c-0.24 0.08 -0.4 0.2 -0.64 0.32 c-1.2 0.56 -2.52 0.8 -3.8 0.88 l-0.32 0 l-0.72 0 l-0.2 0 z M187.3 40.08 c-0.52 0.04 -1.08 0.04 -1.6 0.04 c0 0 -0.04 -0.04 -0.08 -0.04 c-0.12 -1.64 0.04 -3.36 0 -5 c-0.08 -2.28 -0.08 -4.6 -0.08 -6.88 l0 -2.52 c-0.08 -1.8 0.04 -3.6 0 -5.4 l0 0.04 c-0.04 -0.72 -0.04 -1.4 -0.04 -2.08 c0 -2 0.04 -4 0.16 -5.96 c0.76 -0.24 1.8 -0.16 2.64 -0.12 c1.08 1.48 1.96 3.16 3.04 4.68 c1.44 2.12 2.8 4.28 4.2 6.44 l1.52 2.36 c0.2 0.28 0.36 0.52 0.56 0.8 c0.92 1.4 1.76 2.88 2.72 4.28 c0.2 0.32 0.44 0.64 0.64 0.96 l0.6 0.96 c0.36 0.48 0.64 1 0.96 1.48 c0.08 -3.76 0.12 -7.52 0.12 -11.28 l0 -0.2 c-0.12 -2.84 -0.04 -5.72 -0.08 -8.56 c0.08 -0.68 -0.12 -1.44 0.04 -2.08 c0.28 -0.04 0.64 -0.04 0.92 -0.04 c0.52 0 1.08 -0.04 1.6 0 c0.04 0 0.04 0 0.08 0.04 c0.12 1.6 -0.04 3.32 0.04 5 c0.08 2.24 0.04 4.56 0.04 6.84 c0 0.84 0 1.68 0.04 2.52 c0.04 1.8 -0.04 3.6 0 5.4 c0 2.68 0 5.32 -0.12 8 c-0.76 0.28 -1.76 0.08 -2.56 0.16 c-0.08 0 -0.12 -0.04 -0.12 -0.12 c-3.16 -5.4 -6.4 -10.8 -9.84 -16.04 c-0.04 -0.04 -0.08 -0.12 -0.12 -0.16 c-1.48 -2.16 -2.88 -4.36 -4.28 -6.56 l-0.08 6.08 c-0.04 2.04 -0.04 4.08 0 6.08 l0 0.2 c0.08 2.88 0 5.72 0.04 8.6 c-0.16 1.08 0.68 2.32 -0.96 2.08 z M241.79999999999998 37.84 c-2.52 1.84 -5.76 2.6 -8.84 2.32 c-0.2 -0.04 -0.4 -0.04 -0.6 -0.08 c-1.08 -0.08 -2.12 -0.48 -3.12 -0.92 c-0.04 -0.04 -0.12 -0.08 -0.2 -0.12 c-1.84 -0.96 -3.48 -2.36 -4.72 -4.04 c-0.04 -0.08 -0.08 -0.12 -0.12 -0.2 c-1.4 -1.88 -2.24 -4.08 -2.52 -6.4 c-0.08 -0.32 -0.12 -0.68 -0.12 -1.04 l0 -0.72 c-0.04 -0.24 -0.04 -0.48 -0.04 -0.72 c0 -1.36 0.2 -2.76 0.56 -4.08 c0 -0.04 0 -0.08 0.04 -0.08 l0 -0.08 c0 -0.04 0.04 -0.2 0.08 -0.2 c0.04 -0.24 0.12 -0.48 0.2 -0.72 c0 -0.04 0 -0.04 0.04 -0.08 l0 -0.08 c0.04 -0.04 0.04 -0.04 0.04 -0.08 s0 -0.08 0.04 -0.08 c0.72 -2.44 2.2 -4.48 4.24 -5.96 c0.24 -0.2 0.52 -0.4 0.8 -0.56 c1.08 -0.72 2.28 -1.2 3.52 -1.64 c1.08 -0.28 2.16 -0.4 3.28 -0.4 c4.08 0 8.56 1.96 10.48 5.8 c0.08 0.2 0.16 0.36 0.24 0.56 c0.04 0.32 0.6 1.32 0.16 1.4 l0.04 0 l-0.04 0 c-0.72 -0.08 -1.8 0.28 -2.4 -0.12 c-0.08 -0.2 -0.16 -0.4 -0.28 -0.56 c-0.44 -0.88 -1.4 -1.92 -2.16 -2.52 c-1.6 -1.04 -3 -1.68 -4.96 -1.84 c-0.44 -0.08 -0.92 -0.08 -1.36 -0.04 c-1.16 0 -2.72 0.28 -3.76 0.8 c-0.84 0.32 -1.56 0.84 -2.24 1.48 c-2.12 2.12 -3.2 4.32 -3.64 7.32 c-0.16 1.2 -0.28 2.4 -0.16 3.6 c0.64 5.12 3.4 8.96 8.8 9.8 c0.84 0.12 1.68 0.12 2.52 0.04 c1.2 -0.16 2.84 -0.6 3.88 -1.24 c1.32 -0.72 2.28 -1.84 3.12 -3.08 c0.16 -0.28 0.24 -0.56 0.36 -0.84 c0.2 -0.6 0.36 -1.2 0.48 -1.84 l0 0.04 c0.24 -1.12 0.36 -2.28 0.36 -3.44 c-0.24 0.04 -0.44 0.04 -0.68 0.08 c-1.92 0.36 -4.28 1.16 -6.4 1.16 c-1.4 0 -2.64 -0.32 -3.68 -1.28 c-0.28 -0.2 -0.28 -2.24 0.12 -2.16 c0.36 0.08 0.64 0.44 1 0.56 c0.32 0.12 0.68 0.2 1.04 0.28 c0.84 0.16 1.68 0.24 2.56 0.2 l0 0 c1.88 0.04 4.36 -1.28 6.4 -1.28 c0.8 0 1.56 0.2 2.16 0.84 c0.28 3.68 -0.32 7.64 -2.72 10.56 c-0.52 0.64 -1.12 1.2 -1.8 1.68 z M243.95999999999998 25 l-0.08 0 l0.08 0 z M288.82 37.96 c-1.4 2 -5.84 2.24 -8.08 2.24 l0.04 0 c-3.72 -0.16 -7.16 -2 -10.84 -2.32 c-0.52 -0.04 -1.04 -0.04 -1.52 0 c-0.56 0.08 -1.08 0.16 -1.64 0.28 l-0.08 0.04 c-1 0.28 -1.96 0.72 -2.68 1.48 l0.04 0 c-0.16 0.12 -0.32 0.28 -0.48 0.28 c-0.12 0.04 -0.24 0.04 -0.36 0.04 l-0.04 0 c-0.16 0.04 -0.36 0 -0.52 0 c-0.08 -0.84 0 -1.72 -0.04 -2.56 c0 -0.32 0 -0.64 0.04 -0.92 l0 -0.92 l0 -1.88 c0.04 -6 -0.16 -12 -0.04 -18.04 l0 0.04 c0.04 -1.2 0 -2.4 0.04 -3.56 c0.68 -0.28 1.68 -0.04 2.48 -0.12 c0.56 1.72 0 4.12 0.16 6.04 l0 0 c-0.08 5.56 0.16 11.16 0.04 16.72 l0 0.56 l0 0.48 c0.4 -0.2 0.84 -0.36 1.32 -0.52 l0.08 0 c0.8 -0.2 1.6 -0.32 2.4 -0.32 c3.88 0 7.68 2.2 11.6 2.32 c0.04 0 0.08 0.04 0.12 0.04 c2.24 0.08 4.52 -0.32 6.6 -1.24 l-0.04 0 c0.44 -0.2 0.84 -0.44 1.24 -0.64 c0.24 0.16 0.08 0.64 0.16 0.92 l0 0.28 l0 1.28 z M288.74 33.12 c-4.76 0 -9.52 0.04 -14.24 -0.04 c-0.08 0.04 -0.24 0 -0.24 -0.08 c-0.16 -1.88 -0.08 -3.76 -0.04 -5.64 c0.04 -5 -0.28 -9.96 -0.04 -14.96 c0 -0.08 0 -0.16 0.08 -0.2 c4.76 -0.2 9.8 -0.16 14.68 -0.16 c0.08 0 0.16 0 0.16 0.12 l0 0.04 c-0.08 0.72 0.2 1.8 -0.2 2.32 c-4 0.12 -8.04 0.08 -12.04 0.16 c0 2.28 -0.04 4.6 0.04 6.88 c0.28 0 0.52 0 0.76 0.04 c2.92 0.08 6 -0.2 8.8 0 c-0.24 0.64 0.44 2.56 -0.6 2.36 c-3 -0.04 -6 0 -9.04 0 c0.08 2.24 0.08 4.48 0.12 6.72 c4.04 -0.04 8.08 -0.08 12.08 -0.04 c0.08 0 0.2 0 0.2 0.08 c-0.2 0.56 0.24 2.4 -0.48 2.4 z M286.3 21.68 l0 0.08 l0 -0.08 z"/></g>
			</g>
		</svg>
	